<svg width="17" height="16" viewBox="0 0 17 16" fill="none" xmlns="http://www.w3.org/2000/svg">
<path d="M6.23698 12.4521C7.75819 12.4521 9.14111 11.9137 10.2198 11.0026L15.06 15.8343C15.1707 15.9448 15.3089 16 15.4611 16C15.6132 16 15.7515 15.9448 15.8621 15.8343C16.0834 15.6135 16.0834 15.2545 15.8621 15.0336L11.0219 10.2019C11.9208 9.12511 12.474 7.7308 12.474 6.22606C12.474 2.78861 9.68045 0 6.23698 0C2.80733 0 0 2.80242 0 6.22606C0 9.6635 2.80733 12.4521 6.23698 12.4521ZM6.23698 1.13201C9.05814 1.13201 11.34 3.42364 11.34 6.22606C11.34 9.04228 9.05814 11.3201 6.23698 11.3201C3.41582 11.3201 1.134 9.02847 1.134 6.22606C1.134 3.42364 3.42965 1.13201 6.23698 1.13201Z" fill="white"/>
</svg>
